<?xml version="1.0" encoding="UTF-8"?>
<svg width="16px" height="16px" viewBox="0 0 16 16" version="1.1" xmlns="http://www.w3.org/2000/svg" xmlns:xlink="http://www.w3.org/1999/xlink">
    <!-- Generator: sketchtool 54.1 (76490) - https://sketchapp.com -->
    <title>673DE00F-D759-4E9B-8F00-543BC6F9B43B</title>
    <desc>Created with sketchtool.</desc>
    <g id="Page-1" stroke="none" stroke-width="1" fill="none" fill-rule="evenodd">
        <g id="Dashboard" transform="translate(-1260.000000, -46.000000)">
            <g id="Header">
                <g id="chevron" transform="translate(1260.000000, 46.000000)">
                    <circle id="Oval" fill="#5A6ABC" cx="8" cy="8" r="8"></circle>
                    <g transform="translate(4.000000, 6.000000)" fill="#FFFFFF" id="Combined-Shape">
                        <path d="M4,3.01776695 L6.33540386,0.828325838 C6.60769309,0.573054683 7.04709621,0.571118795 7.32192154,0.828767537 L7.27774175,0.787348986 C7.55029119,1.04286409 7.54662201,1.46057577 7.2782129,1.71220931 L4.49302327,4.32332459 C4.4857159,4.33017525 4.47828817,4.33684346 4.4707465,4.34332908 C4.46380004,4.35042602 4.45665613,4.35741878 4.44931463,4.36430144 L4.49349441,4.32288289 C4.22835193,4.57145398 3.79947558,4.57495385 3.52924551,4.34329004 C3.53619155,4.35040742 3.54333809,4.35741337 3.55068537,4.36430144 L3.50674116,4.32310374 L0.721787103,1.71220931 C0.44949787,1.45693816 0.447432923,1.04499773 0.722258248,0.787348986 L0.678078461,0.828767537 C0.9506279,0.573252438 1.39618703,0.576692294 1.66459614,0.828325838 L4,3.01776695 Z"></path>
                    </g>
                </g>
            </g>
        </g>
    </g>
</svg>