<?xml version="1.0" encoding="UTF-8"?>
<svg width="40px" height="40px" viewBox="0 0 40 40" version="1.1" xmlns="http://www.w3.org/2000/svg" xmlns:xlink="http://www.w3.org/1999/xlink">
    <!-- Generator: sketchtool 54.1 (76490) - https://sketchapp.com -->
    <title>61B30253-CF37-4F3A-97AF-0B0C4DF1D3FC</title>
    <desc>Created with sketchtool.</desc>
    <g id="Page-1" stroke="none" stroke-width="1" fill="none" fill-rule="evenodd">
        <g id="Dashboard" transform="translate(-185.000000, -1170.000000)">
            <g id="Activity" transform="translate(165.000000, 1051.000000)">
                <g id="paid" transform="translate(24.000000, 123.000000)">
                    <circle id="Oval-6-Copy" stroke="#FFFFFF" stroke-width="3.42857143" fill="#CFF3E3" cx="16" cy="16" r="17.7142857"></circle>
                    <path d="M15.0777143,22.7565714 C13.8098984,22.6590471 12.8377177,22.2933365 12.1611429,21.6594286 C11.484568,21.0255206 11.0975243,20.14172 11,19.008 L12.5542857,19.008 C12.7127627,20.4708645 13.5538971,21.281523 15.0777143,21.44 L15.0777143,16.704 L14.8948571,16.6674286 C14.3219019,16.5699043 13.8160022,16.4327628 13.3771429,16.256 C12.9382835,16.0792372 12.5664777,15.8476205 12.2617143,15.5611429 C11.9569509,15.2746652 11.7253341,14.9180974 11.5668571,14.4914286 C11.4083802,14.0647598 11.3291429,13.5588601 11.3291429,12.9737143 C11.3291429,12.4982833 11.4175229,12.0624782 11.5942857,11.6662857 C11.7710485,11.2700933 12.0209508,10.9226682 12.344,10.624 C12.6670492,10.3253318 13.0601882,10.0845723 13.5234286,9.90171429 C13.986669,9.71885623 14.504759,9.59695269 15.0777143,9.536 L15.0777143,8 L16.2845714,8 L16.2845714,9.51771429 C16.955051,9.57866697 17.5188549,9.71885605 17.976,9.93828571 C18.4331451,10.1577154 18.8049509,10.4228556 19.0914286,10.7337143 C19.3779062,11.044573 19.594285,11.3828553 19.7405714,11.7485714 C19.8868579,12.1142875 19.9904759,12.473903 20.0514286,12.8274286 L18.552,13.1017143 C18.4788568,12.7969509 18.3843815,12.5165727 18.2685714,12.2605714 C18.1527613,12.0045701 18.0095247,11.7790486 17.8388571,11.584 C17.6681896,11.3889514 17.4548584,11.2274292 17.1988571,11.0994286 C16.9428559,10.9714279 16.638097,10.8830479 16.2845714,10.8342857 L16.2845714,15.3874286 L16.5405714,15.424 C17.7230535,15.6068581 18.6190446,15.984759 19.2285714,16.5577143 C19.8380983,17.1306695 20.1428571,17.9900895 20.1428571,19.136 C20.1428571,19.5992404 20.0636198,20.0411408 19.9051429,20.4617143 C19.7466659,20.8822878 19.5059064,21.2571412 19.1828571,21.5862857 C18.8598079,21.9154302 18.4575262,22.183618 17.976,22.3908571 C17.4944738,22.5980963 16.9306699,22.726095 16.2845714,22.7748571 L16.2845714,24.4937143 L15.0777143,24.4937143 L15.0777143,22.7565714 Z M16.2845714,21.4582857 C17.0647658,21.372952 17.6316173,21.1200021 17.9851429,20.6994286 C18.3386684,20.278855 18.5154286,19.7577174 18.5154286,19.136 C18.5154286,18.9043798 18.4880003,18.6727631 18.4331429,18.4411429 C18.3782854,18.2095227 18.2746674,17.9931439 18.1222857,17.792 C17.969904,17.5908561 17.7596204,17.4171436 17.4914286,17.2708571 C17.2232368,17.1245707 16.8758117,17.0148575 16.4491429,16.9417143 L16.2845714,16.9234286 L16.2845714,21.4582857 Z M15.0777143,10.8342857 C14.2609483,10.93181 13.6910492,11.1786647 13.368,11.5748571 C13.0449508,11.9710496 12.8834286,12.4129499 12.8834286,12.9005714 C12.8834286,13.1931443 12.9139045,13.4582845 12.9748571,13.696 C13.0358098,13.9337155 13.1485706,14.1470467 13.3131429,14.336 C13.4777151,14.5249533 13.7032367,14.6895231 13.9897143,14.8297143 C14.2761919,14.9699055 14.6388549,15.0826662 15.0777143,15.168 L15.0777143,10.8342857 Z" id="$" fill="#10C176" fill-rule="nonzero"></path>
                </g>
            </g>
        </g>
    </g>
</svg>