<?xml version="1.0" encoding="UTF-8"?>
<svg width="56px" height="56px" viewBox="0 0 56 56" version="1.1" xmlns="http://www.w3.org/2000/svg" xmlns:xlink="http://www.w3.org/1999/xlink">
    <!-- Generator: sketchtool 54.1 (76490) - https://sketchapp.com -->
    <title>92A89CB7-261C-47B7-AE55-848D77AEC114</title>
    <desc>Created with sketchtool.</desc>
    <g id="Page-1" stroke="none" stroke-width="1" fill="none" fill-rule="evenodd">
        <g id="Dashboard" transform="translate(-213.000000, -899.000000)" fill="#FFFFFF" fill-rule="nonzero">
            <g id="Banner" transform="translate(165.000000, 854.000000)">
                <path d="M103.760452,75.0535433 C103.351565,73.7908499 102.456584,72.7429776 101.273332,72.1415454 C100.090081,71.5401131 98.7159995,71.4346484 97.454811,71.8484627 L92.4453292,73.4842798 L89.0297734,62.9758187 L94.060274,61.3400016 C95.7567491,60.7887436 97.0302377,59.3743825 97.401029,57.6296945 C97.7718203,55.8850066 97.1835822,54.0750514 95.8578984,52.8816215 C94.5322146,51.6881916 92.6704879,51.2925975 90.9740129,51.8438556 L85.9435122,53.4796727 L84.3040455,48.4496227 C83.752738,46.7532996 82.3382503,45.479925 80.593406,45.109167 C78.8485618,44.7384089 77.0384444,45.3265943 75.8449076,46.6521594 C74.6513709,47.9777244 74.2557413,49.8392843 74.8070488,51.5356074 L76.4430125,56.5586518 L76.4430125,56.5586518 L65.93361,59.9739017 L65.93361,59.9739017 L64.3011495,54.9508573 C63.448902,52.328569 60.6320438,50.8936056 58.0095206,51.7457767 C55.3869975,52.5979479 53.9519054,55.4145537 54.8041529,58.036842 L56.4401165,63.0703949 L56.4401165,63.0703949 L51.2484717,64.7552515 C48.7431969,65.6910539 47.4193914,68.4337391 48.2453669,70.9771404 C49.0713424,73.5205418 51.7540656,74.9623305 54.3312298,74.2478946 L59.5158683,72.5595352 L62.9314241,83.0679963 L57.7643012,84.7563557 C55.2590264,85.6921581 53.9352209,88.4348433 54.7611964,90.9782447 C55.5871719,93.521646 58.2698951,94.9634347 60.8470593,94.2489989 L66.0422072,92.5606395 L66.0422072,92.5606395 L67.7132022,97.7518192 C68.6490884,100.25687 71.3920193,101.580557 73.9356485,100.754655 C76.4792777,99.9287535 77.9211955,97.2462706 77.2066957,94.6693373 L75.518185,89.4851632 L75.518185,89.4851632 L86.0275875,86.0699133 L87.7160981,91.2365734 C88.6481174,93.748357 91.3959477,95.0776241 93.9440195,94.24934 C96.4920913,93.4210558 97.9328991,90.7302168 97.2095916,88.1505886 L95.521081,82.9594089 L100.551582,81.3235918 C103.164969,80.4731467 104.599322,77.67046 103.760452,75.0535433 L103.760452,75.0535433 Z M69.0198712,69.4770533 L79.5292736,66.0618035 L82.9448294,76.5702645 L72.435427,79.9855144 L69.0198712,69.4770533 Z" id="slack"></path>
            </g>
        </g>
    </g>
</svg>